HIERARCHY
ROOT Hips
{
	OFFSET -0.001795 -0.223333 0.028219
	CHANNELS 6 Xposition Yposition Zposition Zrotation Yrotation Xrotation 
	JOINT LeftUpLeg
	{
		OFFSET 0.069520 -0.091406 -0.006815
		CHANNELS 3 Zrotation Yrotation Xrotation
		JOINT LeftLeg
		{
			OFFSET 0.034277 -0.375199 -0.004496
			CHANNELS 3 Zrotation Yrotation Xrotation
			JOINT LeftFoot
			{
				OFFSET -0.013596 -0.397961 -0.043693
				CHANNELS 3 Zrotation Yrotation Xrotation
				JOINT LeftToe
				{
					OFFSET 0.026358 -0.055791 0.119288
					CHANNELS 3 Zrotation Yrotation Xrotation
					End Site
					{
						OFFSET 0.000000 0.000000 0.000000
					}
				}
			}
		}
	}
	JOINT RightUpLeg
	{
		OFFSET -0.067670 -0.090522 -0.004320
		CHANNELS 3 Zrotation Yrotation Xrotation
		JOINT RightLeg
		{
			OFFSET -0.038290 -0.382569 -0.008850
			CHANNELS 3 Zrotation Yrotation Xrotation
			JOINT RightFoot
			{
				OFFSET 0.015774 -0.398415 -0.042312
				CHANNELS 3 Zrotation Yrotation Xrotation
				JOINT RightToe
				{
					OFFSET -0.025372 -0.048144 0.123348
					CHANNELS 3 Zrotation Yrotation Xrotation
					End Site
					{
						OFFSET 0.000000 0.000000 0.000000
					}
				}
			}
		}
	}
	JOINT Spine
	{
		OFFSET -0.002533 0.108963 -0.026696
		CHANNELS 3 Zrotation Yrotation Xrotation
		JOINT Spine1
		{
			OFFSET 0.005487 0.135180 0.001092
			CHANNELS 3 Zrotation Yrotation Xrotation
			JOINT Spine2
			{
				OFFSET 0.001457 0.052922 0.025425
				CHANNELS 3 Zrotation Yrotation Xrotation
				JOINT Neck
				{
					OFFSET -0.002778 0.213870 -0.042857
					CHANNELS 3 Zrotation Yrotation Xrotation
					JOINT Head
					{
						OFFSET 0.005152 0.064970 0.051349
						CHANNELS 3 Zrotation Yrotation Xrotation
						End Site
						{
							OFFSET 0.000000 0.000000 0.000000
						}
					}
				}
				JOINT LeftShoulder
				{
					OFFSET 0.078845 0.121749 -0.034090
					CHANNELS 3 Zrotation Yrotation Xrotation
					JOINT LeftArm
					{
						OFFSET 0.090977 0.030469 -0.008868
						CHANNELS 3 Zrotation Yrotation Xrotation
						JOINT LeftForeArm
						{
							OFFSET 0.259612 -0.012772 -0.027456
							CHANNELS 3 Zrotation Yrotation Xrotation
							JOINT LeftHand
							{
								OFFSET 0.249234 0.008986 -0.001171
								CHANNELS 3 Zrotation Yrotation Xrotation
								End Site
								{
									OFFSET 0.000000 0.000000 0.000000
								}
							}
						}
					}
				}
				JOINT RightShoulder
				{
					OFFSET -0.081759 0.118833 -0.038615
					CHANNELS 3 Zrotation Yrotation Xrotation
					JOINT RightArm
					{
						OFFSET -0.096012 0.032551 -0.009143
						CHANNELS 3 Zrotation Yrotation Xrotation
						JOINT RightForeArm
						{
							OFFSET -0.253742 -0.013329 -0.021401
							CHANNELS 3 Zrotation Yrotation Xrotation
							JOINT RightHand
							{
								OFFSET -0.255298 0.007772 -0.005559
								CHANNELS 3 Zrotation Yrotation Xrotation
								End Site
								{
									OFFSET 0.000000 0.000000 0.000000
								}
							}
						}
					}
				}
			}
		}
	}
}
MOTION
Frames: 7
Frame Time: 0.050000
0.000000 0.692330 0.000000 -0.750287 -0.673374 -22.117248 14.320708 1.864380 -42.580412 -12.821511 6.418480 61.347360 2.973425 6.304282 0.734676 0.000000 0.000000 0.000000 -13.650822 -0.945261 -42.387993 14.823761 -7.368788 62.673982 -6.716165 -16.440378 3.911529 0.000000 0.000000 0.000000 1.439799 -1.348564 28.241548 -1.832751 0.990307 -0.014416 1.646866 2.205402 -1.423396 -0.217468 -0.171619 3.591706 0.000000 0.000000 0.000000 -22.651187 -0.198688 -2.912462 -25.718207 1.970140 -2.998272 -1.894963 -51.881942 2.383503 0.000000 0.000000 0.000000 23.170653 0.226173 -1.987883 32.641665 -3.094247 -3.760259 13.472866 45.494092 6.883853 0.000000 0.000000 0.000000 
0.000456 0.687397 -0.000350 -1.420130 -0.772061 -21.220174 15.467375 2.390969 -44.312353 -13.528582 6.990259 62.139973 2.971731 6.277461 0.634381 0.000000 0.000000 0.000000 -13.545928 -0.901474 -43.686044 15.586104 -8.033313 62.808146 -7.016407 -17.060529 3.687276 0.000000 0.000000 0.000000 1.528886 -1.296455 26.667663 -1.623802 0.864232 1.132777 1.593140 2.305735 -1.159450 0.414688 -0.643688 2.876843 0.000000 0.000000 0.000000 -23.144466 0.094747 -3.161042 -28.359066 1.060165 -3.131900 0.581058 -53.970099 1.216837 0.000000 0.000000 0.000000 23.871269 0.498486 -1.834698 34.410068 -3.155519 -4.011271 17.212792 48.223560 9.068003 0.000000 0.000000 0.000000 
0.000430 0.684706 -0.000848 -1.176744 -0.392511 -21.198964 15.484089 2.323542 -44.503375 -14.257601 7.414084 62.011724 3.111234 6.465438 0.336842 0.000000 0.000000 0.000000 -14.231958 -1.251992 -43.662983 15.897478 -8.372478 62.756838 -7.087348 -17.128743 2.838279 0.000000 0.000000 0.000000 2.092393 -1.365226 25.648440 -1.394283 0.733257 1.643409 0.266420 2.340242 -0.776588 1.086928 -1.119113 1.967795 0.000000 0.000000 0.000000 -21.954406 -0.762964 -2.661694 -31.030830 2.280883 -3.721587 -5.082091 -58.796696 4.410797 0.000000 0.000000 0.000000 25.414444 0.346365 -1.867271 35.458184 -2.744334 -4.111943 19.825651 51.003115 11.039903 0.000000 0.000000 0.000000 
0.000029 0.684878 -0.001245 -1.578893 -0.362097 -21.302571 15.633893 2.380099 -44.828594 -13.901140 7.141413 62.581478 2.879754 6.184759 0.889153 0.000000 0.000000 0.000000 -14.308523 -1.311755 -43.325642 16.621789 -8.876084 62.243728 -7.194469 -17.359631 3.023635 0.000000 0.000000 0.000000 1.884796 -1.332357 25.516872 -2.093606 1.120479 1.971907 1.163769 1.592485 -0.729593 0.570132 -0.723490 2.434282 0.000000 0.000000 0.000000 -22.866263 0.287583 -3.101489 -33.700428 1.397043 -3.941343 -11.683024 -64.435113 9.257019 0.000000 0.000000 0.000000 25.930330 1.390713 -1.590051 37.436704 -3.270464 -4.427087 26.378003 54.519244 15.210407 0.000000 0.000000 0.000000 
-0.000872 0.685039 -0.001442 -1.111518 -0.157148 -21.103720 15.297306 2.212133 -45.100259 -14.104750 7.299589 62.492384 2.888794 6.370702 1.395994 0.000000 0.000000 0.000000 -14.647657 -1.462292 -43.102536 16.441320 -8.689181 61.770375 -7.233084 -17.348543 1.899521 0.000000 0.000000 0.000000 1.245488 -1.257808 26.003387 -1.673791 0.891662 1.446545 0.663607 2.390948 -0.908139 0.725165 -0.781935 1.700236 0.000000 0.000000 0.000000 -23.660216 0.021817 -3.339181 -33.876494 2.036061 -4.036530 -27.919896 -67.671328 20.686618 0.000000 0.000000 0.000000 26.819079 0.667814 -1.807847 38.021452 -3.025958 -4.517643 33.510202 56.433263 20.011491 0.000000 0.000000 0.000000 
-0.002061 0.684352 -0.001381 -1.585783 0.151623 -20.766172 15.669456 2.296030 -45.837467 -14.133657 7.230042 62.808433 2.704959 6.100161 1.639640 0.000000 0.000000 0.000000 -14.459159 -1.471643 -43.407235 16.661383 -9.010835 61.720715 -7.429455 -17.775261 2.032987 0.000000 0.000000 0.000000 1.572901 -1.316804 25.611705 -1.701719 0.893910 2.544567 0.960040 1.843184 -1.624780 0.822652 -0.741544 0.640866 0.000000 0.000000 0.000000 -24.672548 0.196232 -3.489455 -35.487200 1.315390 -4.033154 -41.424781 -68.151147 30.587001 0.000000 0.000000 0.000000 26.820844 1.356109 -1.567465 40.160070 -2.540446 -4.517885 37.849239 57.835544 23.031576 0.000000 0.000000 0.000000 
-0.003177 0.684836 -0.001116 -1.573189 0.389280 -20.427131 15.342538 2.087604 -45.936390 -13.759170 6.867116 62.460540 2.764112 6.053445 1.132507 0.000000 0.000000 0.000000 -14.583765 -1.557159 -43.099274 16.798143 -9.086351 60.902499 -7.587957 -18.039954 0.961174 0.000000 0.000000 0.000000 1.535002 -1.308493 25.256716 -1.656969 0.868609 2.361922 0.900967 1.918030 -1.542758 0.907901 -0.702764 -0.316599 0.000000 0.000000 0.000000 -25.706264 -0.774491 -3.141859 -36.612475 0.547511 -3.932360 -50.941551 -67.191977 36.960253 0.000000 0.000000 0.000000 27.683393 1.676509 -1.363542 41.283921 -2.386121 -4.633293 40.241082 59.148394 25.191251 0.000000 0.000000 0.000000 
